<svg xmlns="http://www.w3.org/2000/svg" viewBox="0 0 720 170" role="img" aria-label="Tradewave Ingredients logo">
  <defs>
    <linearGradient id="gold" x1="0" x2="1" y1="0" y2="1">
      <stop offset="0%" stop-color="#f4d890"/>
      <stop offset="48%" stop-color="#c79a3b"/>
      <stop offset="100%" stop-color="#8d611c"/>
    </linearGradient>
    <linearGradient id="aqua" x1="0" x2="1">
      <stop offset="0%" stop-color="#59e6d0"/>
      <stop offset="100%" stop-color="#7bdc8a"/>
    </linearGradient>
  </defs>
  <g transform="translate(10 12)">
    <circle cx="72" cy="72" r="66" fill="#0d1320" stroke="url(#gold)" stroke-width="5"/>
    <path d="M25 95 C80 18 125 50 136 92 C92 72 64 120 25 95Z" fill="none" stroke="#f4d890" stroke-width="5" stroke-linecap="round"/>
    <path d="M106 96 C128 82 147 88 156 108 C131 111 117 105 106 96Z" fill="#79c86f"/>
    <path d="M94 111 C120 100 142 111 151 132 C121 134 105 126 94 111Z" fill="#2b8c55"/>
    <text x="38" y="84" font-family="Georgia, serif" font-size="72" font-weight="700" fill="#f6f0e6">T</text>
    <text x="80" y="104" font-family="Georgia, serif" font-size="62" font-weight="700" fill="url(#gold)">W</text>
  </g>
  <line x1="178" y1="38" x2="178" y2="132" stroke="#c79a3b" stroke-width="2"/>
  <text x="210" y="78" font-family="Georgia, serif" font-size="52" letter-spacing="8" fill="#f7efe3">TRADEWAVE</text>
  <text x="214" y="122" font-family="Arial, sans-serif" font-size="28" letter-spacing="14" fill="url(#gold)">INGREDIENTS</text>
  <text x="216" y="151" font-family="Arial, sans-serif" font-size="13" letter-spacing="4" fill="#7bdc8a">NATURE ENGINEERED FOR GLOBAL NUTRITION</text>
</svg>